# xmcd
#
# Track frame offsets: 
#        150
#        21906
#        39256
#        57686
#        81999
#        96516
#        118619
#        138340
#        159622
#        172558
#        215379
#        237184
#
# Disc length: 3375 seconds
#
# Revision: 0
# Processed by: cddbd v1.5.2PL0 Copyright (c) Steve Scherf et al.
# Submitted via: ExactAudioCopy v1.3
#
DISCID=9d0d2d0c
DTITLE=Barefoot Iano - I Got a Feeling
DYEAR=2019
DGENRE=Electric Blues, Harmonica Blues
TTITLE0=Northbound Train
TTITLE1=I Got A Feeling
TTITLE2=TBone Shuffle
TTITLE3=Ain't No Sunshine
TTITLE4=Boom Boom Out Go The Lights
TTITLE5=Ticket For The Blues
TTITLE6=Old Steam Train
TTITLE7=St Louis Blues
TTITLE8=You Got Me Doin' What You Want Me
TTITLE9=My Turn Now
TTITLE10=She's Dynamite
TTITLE11=Essential Knowledge
EXTD=
EXTT0=
EXTT1=
EXTT2=
EXTT3=
EXTT4=
EXTT5=
EXTT6=
EXTT7=
EXTT8=
EXTT9=
EXTT10=
EXTT11=
PLAYORDER=
